<svg aria-hidden="true" style="position:absolute;width:0;height:0;overflow:hidden" xmlns="http://www.w3.org/2000/svg"><defs><symbol id="icon-radio-button" viewBox="0 0 32 32"><path fill="#4dc274" style="fill:var(--color1, #4dc274)" d="M16 8a8 8 0 1 1 0 16 8 8 0 0 1 0-16z"/><path fill="none" stroke="#4dc274" style="stroke:var(--color1, #4dc274)" stroke-width="3.2" d="M16 1.6c7.953 0 14.4 6.447 14.4 14.4S23.953 30.4 16 30.4 1.6 23.953 1.6 16 8.047 1.6 16 1.6z"/></symbol><symbol id="icon-arrow-icon" viewBox="0 0 32 32"><path d="M16.947 17.867a1.334 1.334 0 0 1-1.894 0l-6.107-6.12a1.334 1.334 0 1 0-1.894 1.88l6.12 6.12a4.001 4.001 0 0 0 5.654 0l6.12-6.12a1.337 1.337 0 0 0-.434-2.172 1.331 1.331 0 0 0-1.46.292l-6.107 6.12z"/></symbol><symbol id="icon-youtube-icon" viewBox="0 0 32 32"><path d="M24.24 6c-1.36-.08-4.16-.16-8.4-.16h-.56c-4.08 0-6.8.08-8.16.24-1.84.16-3.12.64-3.84 1.28-.64.56-1.12 1.6-1.28 2.96-.08.88-.16 2.72-.16 5.52v.4c0 2.64.08 4.48.24 5.36.24 1.28.64 2.24 1.44 2.8.8.64 2.16 1.04 4.08 1.2 1.36.08 4.16.16 8.4.16h.56c4.08 0 6.8-.08 8.16-.24 1.84-.16 3.12-.64 3.84-1.28.64-.56 1.12-1.6 1.28-2.96.08-.88.16-2.72.16-5.52v-.4c0-2.64-.08-4.48-.24-5.36-.24-1.28-.64-2.24-1.44-2.8-.8-.64-2.16-1.04-4.08-1.2zm-3.12 9.84-8.8 5.28V10.56l8.8 5.28z"/></symbol><symbol id="icon-instagram-icon" viewBox="0 0 32 32"><path d="M28.718 10.756a9.264 9.264 0 0 0-.596-3.145 6.547 6.547 0 0 0-3.743-3.737 9.42 9.42 0 0 0-3.108-.596c-1.368-.061-1.801-.078-5.273-.078s-3.916 0-5.274.078a9.413 9.413 0 0 0-3.106.596 6.541 6.541 0 0 0-3.743 3.737 9.288 9.288 0 0 0-.596 3.101c-.061 1.367-.08 1.8-.08 5.265s0 3.909.08 5.265a9.335 9.335 0 0 0 .596 3.104 6.548 6.548 0 0 0 3.744 3.735 9.37 9.37 0 0 0 3.106.639c1.369.061 1.803.08 5.274.08s3.916 0 5.274-.08a9.362 9.362 0 0 0 3.108-.595 6.555 6.555 0 0 0 3.743-3.737 9.35 9.35 0 0 0 .596-3.104c.061-1.365.08-1.798.08-5.265-.003-3.466-.003-3.906-.082-5.264zM15.99 22.531c-3.631 0-6.572-2.936-6.572-6.561s2.941-6.561 6.572-6.561c3.628 0 6.572 2.936 6.572 6.561s-2.944 6.561-6.572 6.561zm6.834-11.835a1.53 1.53 0 1 1 0-3.06 1.53 1.53 0 1 1 0 3.06z"/><path d="M15.992 19.976a4.004 4.004 0 1 0 0-8.009 4.004 4.004 0 0 0 0 8.009z"/></symbol><symbol id="icon-facebook-icon" viewBox="0 0 32 32"><path d="M19.52 4.64h.96v3.6h-1.2c-.48 0-.96 0-1.2.24s-.24.48-.24 1.04v1.28h2.64v3.04h-2.64v13.2h-4.08V13.76H11.6v-3.04h2.16V9.68c0-1.76.24-3.04.72-3.6.72-1.04 2.16-1.52 4.32-1.52.24.08.48.08.72.08z"/></symbol><symbol id="icon-close-menu-icon" viewBox="0 0 32 32"><path fill="none" stroke="#fff" style="stroke:var(--color2, #fff)" stroke-linejoin="round" stroke-linecap="round" stroke-width="2.4" d="M24 8 8 24M8 8l16 16"/></symbol><symbol id="icon-burger-menu-icon" viewBox="0 0 32 32"><path stroke-linecap="round" stroke-width="2.4" d="M6.07 8.352H30.8M6.07 21.927H30.8M13.722 15.139H30.8"/></symbol><symbol id="icon-error-sign" viewBox="0 0 32 32"><path d="M15 0c1.385 0 2.714.177 3.984.531s2.469.854 3.594 1.5 2.135 1.427 3.031 2.344 1.677 1.932 2.344 3.047S29.125 9.729 29.469 11c.344 1.271.521 2.604.531 4 0 1.385-.177 2.714-.531 3.984s-.854 2.469-1.5 3.594-1.427 2.135-2.344 3.031-1.932 1.677-3.047 2.344-2.307 1.172-3.578 1.516A15.678 15.678 0 0 1 15 30c-1.385 0-2.714-.177-3.984-.531s-2.469-.854-3.594-1.5-2.135-1.427-3.031-2.344-1.677-1.932-2.344-3.047S.875 20.271.531 19A15.678 15.678 0 0 1 0 15c0-1.385.177-2.714.531-3.984s.854-2.469 1.5-3.594 1.427-2.135 2.344-3.031 1.932-1.677 3.047-2.344C8.537 1.38 9.729.875 11 .531S13.604.01 15 0zm0 28c1.187 0 2.333-.156 3.437-.469s2.141-.75 3.109-1.312a12.978 12.978 0 0 0 4.672-4.656c.562-.958 1-1.995 1.312-3.109s.469-2.266.469-3.453-.156-2.333-.469-3.438c-.312-1.104-.75-2.141-1.312-3.109s-1.24-1.849-2.031-2.641c-.792-.792-1.667-1.469-2.625-2.031s-1.995-1-3.109-1.313A12.715 12.715 0 0 0 15 2c-1.198 0-2.349.156-3.453.469a13.184 13.184 0 0 0-5.735 3.344 12.299 12.299 0 0 0-2.031 2.625c-.552.958-.99 1.995-1.313 3.109S1.989 13.813 1.999 15c0 1.187.156 2.333.469 3.437s.75 2.141 1.313 3.109a12.978 12.978 0 0 0 4.656 4.672c.958.562 1.995 1 3.109 1.312s2.266.469 3.453.469zM14 8h2v10h-2V8zm0 12h2v2h-2v-2z"/></symbol></defs></svg>